<?xml version="1.0" encoding="iso-8859-1"?>
<!-- Generator: Adobe Illustrator 19.0.0, SVG Export Plug-In . SVG Version: 6.00 Build 0)  -->
<svg version="1.1" id="Layer_1" xmlns="http://www.w3.org/2000/svg" xmlns:xlink="http://www.w3.org/1999/xlink" x="0px" y="0px"
	 viewBox="0 0 512 512" style="enable-background:new 0 0 512 512;" xml:space="preserve">
<g>
	<g>
		<path style="fill:#8697CB;" d="M423.724,52.966H88.276c-4.873,0-8.828-3.946-8.828-8.828s3.955-8.828,8.828-8.828h335.448
			c4.873,0,8.828,3.946,8.828,8.828S428.597,52.966,423.724,52.966"/>
		<path style="fill:#8697CB;" d="M467.862,432.552c-4.873,0-8.828-3.946-8.828-8.828V88.276c0-4.882,3.955-8.828,8.828-8.828
			s8.828,3.946,8.828,8.828v335.448C476.69,428.606,472.735,432.552,467.862,432.552"/>
		<path style="fill:#8697CB;" d="M423.724,476.69H88.276c-4.873,0-8.828-3.946-8.828-8.828c0-4.882,3.955-8.828,8.828-8.828h335.448
			c4.873,0,8.828,3.946,8.828,8.828C432.552,472.744,428.597,476.69,423.724,476.69"/>
		<path style="fill:#8697CB;" d="M44.139,432.552c-4.873,0-8.828-3.946-8.828-8.828V88.276c0-4.882,3.955-8.828,8.828-8.828
			s8.828,3.946,8.828,8.828v335.448C52.966,428.606,49.012,432.552,44.139,432.552"/>
	</g>
	<path style="fill:#35495E;" d="M344.276,97.103h-70.621h-35.31h-70.621h-52.966v35.31v44.138l31.214-31.206
		c8.271-8.289,19.5-12.932,31.206-12.932h43.511c9.746,0,17.655,7.91,17.655,17.655v238.345h-79.448v35.31h194.207v-35.31h-79.448
		V150.069c0-9.746,7.91-17.655,17.655-17.655h43.511c11.705,0,22.934,4.643,31.206,12.932l31.214,31.206v-44.138v-35.31H344.276z"/>
	<g>
		<path style="fill:#26B99A;" d="M88.276,44.138c0,24.382-19.765,44.138-44.138,44.138S0,68.52,0,44.138S19.765,0,44.138,0
			S88.276,19.756,88.276,44.138"/>
		<path style="fill:#26B99A;" d="M512,44.138c0,24.382-19.765,44.138-44.138,44.138s-44.138-19.756-44.138-44.138
			S443.489,0,467.862,0S512,19.756,512,44.138"/>
		<path style="fill:#26B99A;" d="M512,467.862C512,492.244,492.235,512,467.862,512s-44.138-19.756-44.138-44.138
			s19.765-44.138,44.138-44.138S512,443.48,512,467.862"/>
		<path style="fill:#26B99A;" d="M88.276,467.862c0,24.382-19.765,44.138-44.138,44.138S0,492.244,0,467.862
			s19.765-44.138,44.138-44.138S88.276,443.48,88.276,467.862"/>
	</g>
</g>
<g>
</g>
<g>
</g>
<g>
</g>
<g>
</g>
<g>
</g>
<g>
</g>
<g>
</g>
<g>
</g>
<g>
</g>
<g>
</g>
<g>
</g>
<g>
</g>
<g>
</g>
<g>
</g>
<g>
</g>
</svg>
